Coordinates
version=1
nRows=8
nColumns=63
inDegrees=yes

Units are S.I. units (second, meters, Newtons, ...)
If the header above contains a line with 'inDegrees', this indicates whether rotational values are in degrees (yes) or radians (no).

endheader
time	pelvis_tilt	pelvis_list	pelvis_rotation	pelvis_tx	pelvis_ty	pelvis_tz	hip_flexion_r	hip_adduction_r	hip_rotation_r	knee_angle_r	knee_angle_r_beta	ankle_angle_r	subtalar_angle_r	mtp_angle_r	hip_flexion_l	hip_adduction_l	hip_rotation_l	knee_angle_l	knee_angle_l_beta	ankle_angle_l	subtalar_angle_l	mtp_angle_l	L5_S1_Flex_Ext	L5_S1_Lat_Bending	L5_S1_axial_rotation	L4_L5_Flex_Ext	L4_L5_Lat_Bending	L4_L5_axial_rotation	L3_L4_Flex_Ext	L3_L4_Lat_Bending	L3_L4_axial_rotation	L2_L3_Flex_Ext	L2_L3_Lat_Bending	L2_L3_axial_rotation	L1_L2_Flex_Ext	L1_L2_Lat_Bending	L1_L2_axial_rotation	L1_T12_Flex_Ext	L1_T12_Lat_Bending	L1_T12_axial_rotation	Abs_r3	Abs_r2	Abs_r1	Abs_t1	Abs_t2	neck_flexion	neck_bending	neck_rotation	arm_flex_r	arm_add_r	arm_rot_r	elbow_flex_r	pro_sup_r	wrist_flex_r	wrist_dev_r	arm_flex_l	arm_add_l	arm_rot_l	elbow_flex_l	pro_sup_l	wrist_flex_l	wrist_dev_l
      1.30508475	      0.55626221	      4.42019227	     95.30966444	      0.09257448	      0.89555337	      0.59935639	     -1.47622174	      0.62386174	     12.25694711	      2.83140882	      0.04941741	     28.30140459	    -10.01005168	      0.00000000	      1.46667456	     -3.49442617	      9.91805964	      8.14947708	      0.14223521	     27.57274125	    -15.91977743	      0.00000000	      0.41433510	      0.29091450	      0.31015721	      0.76946172	      0.38691628	      0.32954203	      0.68071114	      0.70732950	      0.32954203	      0.47354359	      0.70732950	      0.27138756	      0.38475157	      0.59323284	      0.25200273	      0.23675108	      0.45062655	      0.23261791	      2.95955419	      3.29088296	      1.72500135	      0.00000000	      0.00000000	     28.28218825	      6.74181477	     11.65085631	     22.42372180	     -0.16889314	     91.57005268	     25.88104218	     84.10601886	     -9.14821787	     -1.61000781	     20.01229901	     -0.96173606	     75.33253825	     27.25659764	     52.09630202	     -5.45798440	      4.40815378
      1.32203390	      0.56713376	      4.43138192	     95.33283181	      0.09268707	      0.89569510	      0.59864660	     -1.61172798	      0.67624580	     13.53115487	      2.71131666	      0.04732140	     27.86035252	    -11.86804141	      0.00000000	      1.36026169	     -3.50556681	     10.41986922	      8.09002587	      0.14119759	     27.42392656	    -16.49737702	      0.00000000	      0.42138125	      0.29264013	      0.37504624	      0.78254713	      0.38921138	      0.39848663	      0.69228726	      0.71152522	      0.39848663	      0.48159663	      0.71152522	      0.32816546	      0.39129463	      0.59675176	      0.30472507	      0.24077725	      0.45329957	      0.28128468	      3.00988416	      3.31040372	      2.08589468	      0.00000000	      0.00000000	     28.28521179	      6.77359178	     11.62056876	     21.92500450	     -0.42058938	     89.82333833	     26.15641831	     82.43769817	     -8.43080389	     -1.12039835	     20.01708890	     -0.88040966	     75.94267176	     27.32643946	     50.74311718	     -5.69764417	      4.22785703
      1.33898305	      0.57691634	      4.41596485	     95.05414181	      0.09337152	      0.89580202	      0.59815705	     -1.53803589	      0.72556922	     13.86278664	      2.88617066	      0.05037318	     27.81083896	    -12.17289774	      0.00000000	      1.26470848	     -3.56748985	     10.10403439	      8.04883818	      0.14047873	     27.45961217	    -16.33805831	      0.00000000	      0.42575106	      0.29742916	      0.49550739	      0.79066230	      0.39558079	      0.52647660	      0.69946642	      0.72316927	      0.52647660	      0.48659089	      0.72316927	      0.43356896	      0.39535244	      0.60651755	      0.40259975	      0.24327416	      0.46071777	      0.37163054	      3.04109727	      3.36457818	      2.75586343	      0.00000000	      0.00000000	     28.28842203	      6.88565922	     11.87141649	     21.52140377	     -0.63270955	     88.26856122	     26.27572927	     81.69698609	     -7.77185211	     -1.26956703	     20.14270001	     -0.81571644	     76.67864080	     27.33900148	     50.02340979	     -5.54603195	      3.93211554
      1.35593220	      0.60523162	      4.37509199	     94.99033670	      0.09374016	      0.89584284	      0.59794020	     -1.37431362	      0.78159775	     13.21780908	      3.19780952	      0.05581231	     28.04248702	    -11.48520717	      0.00000000	      1.24095531	     -3.62258930	     10.15427054	      7.99459871	      0.13953207	     27.39612905	    -16.39909722	      0.00000000	      0.43053030	      0.30603312	      0.56176606	      0.79953781	      0.40702405	      0.59687644	      0.70731822	      0.74408893	      0.59687644	      0.49205307	      0.74408893	      0.49154530	      0.39979043	      0.62406274	      0.45643492	      0.24600501	      0.47404530	      0.42132454	      3.07523485	      3.46190788	      3.12437429	      0.00000000	      0.00000000	     28.29461650	      7.00407856	     12.32770478	     21.25049738	     -0.84319421	     87.22927666	     26.46172956	     81.02707310	     -7.47321304	     -1.37199244	     20.23800974	     -0.75897517	     77.08983410	     27.41300175	     49.55600980	     -5.54795827	      3.91091764
      1.37288136	      0.62828847	      4.29894677	     94.86172338	      0.09419038	      0.89579116	      0.59775383	     -1.22259202	      0.82878870	     13.03113594	      3.39918801	      0.05932702	     28.06443492	    -11.36891108	      0.00000000	      1.23329743	     -3.67464141	     10.07314954	      7.91314105	      0.13811037	     27.39789535	    -16.29255809	      0.00000000	      0.44024404	      0.31520813	      0.63638137	      0.81757720	      0.41922681	      0.67615521	      0.72327693	      0.76639704	      0.67615521	      0.50315491	      0.76639704	      0.55683370	      0.40881061	      0.64277241	      0.51705987	      0.25155544	      0.48825739	      0.47728603	      3.14461913	      3.56569736	      3.53936228	      0.00000000	      0.00000000	     28.29679354	      7.04421386	     12.85011397	     20.89291870	     -1.06530275	     85.79198256	     26.64161158	     81.13819581	     -6.98952695	     -1.50772917	     20.48933182	     -0.67819707	     78.25713310	     27.36203624	     48.43004338	     -5.56593108	      3.69784152
      1.38983051	      0.60054746	      4.22965398	     94.98745236	      0.09433972	      0.89568319	      0.59778824	     -1.12883433	      0.81992389	     12.67358877	      3.51144525	      0.06128628	     28.08225427	    -11.29928967	      0.00000000	      1.27998877	     -3.66943118	     10.24572939	      7.86419451	      0.13725609	     27.43804526	    -16.08702747	      0.00000000	      0.44557408	      0.31602660	      0.63927443	      0.82747563	      0.42031538	      0.67922908	      0.73203366	      0.76838708	      0.67922908	      0.50924662	      0.76838708	      0.55936513	      0.41376009	      0.64444144	      0.51941048	      0.25460103	      0.48952520	      0.47945582	      3.18269113	      3.57495610	      3.55545261	      0.00000000	      0.00000000	     28.30055043	      7.08226942	     13.43163486	     20.60928565	     -1.19159947	     84.48022751	     26.80872433	     81.77581612	     -6.49046006	     -1.53005933	     20.41150327	     -0.70667897	     77.54700421	     27.45747273	     49.83591469	     -5.66364640	      4.01126271
      1.40677966	      0.57151675	      4.20559124	     94.97863240	      0.09449462	      0.89561530	      0.59801309	     -0.98832223	      0.78357196	     11.70976041	      3.74109772	      0.06529447	     28.47192845	    -10.04967568	      0.00000000	      1.21624614	     -3.63823078	     10.61675279	      7.70258253	      0.13443543	     27.28435377	    -16.36530798	      0.00000000	      0.44278444	      0.31887615	      0.64420231	      0.82229498	      0.42410528	      0.68446495	      0.72745055	      0.77531546	      0.68446495	      0.50605833	      0.77531546	      0.56367702	      0.41116963	      0.65025224	      0.52341437	      0.25300703	      0.49393915	      0.48315173	      3.16276497	      3.60719075	      3.58285997	      0.00000000	      0.00000000	     28.29917812	      7.01667267	     13.92707823	     20.82610868	     -1.22080179	     85.57966931	     26.81272200	     81.13584317	     -6.69451773	     -1.82701972	     20.48672219	     -0.74287511	     77.62366037	     27.50580781	     50.13353127	     -6.07447537	      3.95842988
      1.42372881	      0.52147916	      4.19452730	     95.01170607	      0.09460048	      0.89556147	      0.59835883	     -0.86847431	      0.71278940	     10.60280873	      3.92178920	      0.06844813	     28.99276980	     -8.47056590	      0.00000000	      1.20732664	     -3.58682377	     10.86710092	      7.65600704	      0.13362253	     27.23547516	    -16.45355635	      0.00000000	      0.43698609	      0.31689317	      0.64902032	      0.81152687	      0.42146791	      0.68958409	      0.71792445	      0.77049405	      0.68958409	      0.49943141	      0.77049405	      0.56789278	      0.40578529	      0.64620855	      0.52732901	      0.24969385	      0.49086752	      0.48676524	      3.12134797	      3.58475891	      3.60965629	      0.00000000	      0.00000000	     28.29667293	      6.93302266	     14.16506884	     21.01305951	     -1.21994296	     86.50210867	     26.74713910	     81.02352032	     -6.82702218	     -2.08516387	     20.50073440	     -0.82578558	     77.33964257	     27.65704831	     50.82958048	     -6.60693582	      3.81518573
